<?xml version="1.0" encoding="UTF-8" standalone="no"?>
<!DOCTYPE svg PUBLIC "-//W3C//DTD SVG 1.1//EN"
 "http://www.w3.org/Graphics/SVG/1.1/DTD/svg11.dtd">
<!-- Generated by graphviz version 2.49.0 (20210828.1703)
 -->
<!-- Pages: 1 -->
<svg width="873pt" height="345pt"
 viewBox="0.00 0.00 873.00 344.50" xmlns="http://www.w3.org/2000/svg" xmlns:xlink="http://www.w3.org/1999/xlink">
<g id="graph0" class="graph" transform="scale(1 1) rotate(0) translate(4 340.5)">
<polygon fill="white" stroke="transparent" points="-4,4 -4,-340.5 869,-340.5 869,4 -4,4"/>
<!-- X1&#45;1 -->
<g id="node1" class="node">
<title>X1&#45;1</title>
<polygon fill="white" stroke="transparent" points="185,-299 0,-299 0,0 185,0 185,-299"/>
<polygon fill="none" stroke="black" points="0.5,-275.5 0.5,-298.5 185.5,-298.5 185.5,-275.5 0.5,-275.5"/>
<text text-anchor="start" x="78" y="-283.3" font-family="arial" font-size="14.00">X1&#45;1</text>
<polygon fill="none" stroke="black" points="0.5,-252.5 0.5,-275.5 72.5,-275.5 72.5,-252.5 0.5,-252.5"/>
<text text-anchor="start" x="11.5" y="-260.3" font-family="arial" font-size="14.00">JST GH</text>
<polygon fill="none" stroke="black" points="72.5,-252.5 72.5,-275.5 125.5,-275.5 125.5,-252.5 72.5,-252.5"/>
<text text-anchor="start" x="83.5" y="-260.3" font-family="arial" font-size="14.00">male</text>
<polygon fill="none" stroke="black" points="125.5,-252.5 125.5,-275.5 185.5,-275.5 185.5,-252.5 125.5,-252.5"/>
<text text-anchor="start" x="136" y="-260.3" font-family="arial" font-size="14.00">10&#45;pin</text>
<polygon fill="none" stroke="black" points="0.5,-229.5 0.5,-252.5 161.5,-252.5 161.5,-229.5 0.5,-229.5"/>
<text text-anchor="start" x="66" y="-237.3" font-family="arial" font-size="14.00">VCC</text>
<polygon fill="none" stroke="black" points="161.5,-229.5 161.5,-252.5 185.5,-252.5 185.5,-229.5 161.5,-229.5"/>
<text text-anchor="start" x="169.5" y="-237.3" font-family="arial" font-size="14.00">1</text>
<polygon fill="none" stroke="black" points="0.5,-206.5 0.5,-229.5 161.5,-229.5 161.5,-206.5 0.5,-206.5"/>
<text text-anchor="start" x="68" y="-214.3" font-family="arial" font-size="14.00">TX1</text>
<polygon fill="none" stroke="black" points="161.5,-206.5 161.5,-229.5 185.5,-229.5 185.5,-206.5 161.5,-206.5"/>
<text text-anchor="start" x="169.5" y="-214.3" font-family="arial" font-size="14.00">2</text>
<polygon fill="none" stroke="black" points="0.5,-183.5 0.5,-206.5 161.5,-206.5 161.5,-183.5 0.5,-183.5"/>
<text text-anchor="start" x="67" y="-191.3" font-family="arial" font-size="14.00">RX1</text>
<polygon fill="none" stroke="black" points="161.5,-183.5 161.5,-206.5 185.5,-206.5 185.5,-183.5 161.5,-183.5"/>
<text text-anchor="start" x="169.5" y="-191.3" font-family="arial" font-size="14.00">3</text>
<polygon fill="none" stroke="black" points="0.5,-160.5 0.5,-183.5 161.5,-183.5 161.5,-160.5 0.5,-160.5"/>
<text text-anchor="start" x="63" y="-168.3" font-family="arial" font-size="14.00">SCL1</text>
<polygon fill="none" stroke="black" points="161.5,-160.5 161.5,-183.5 185.5,-183.5 185.5,-160.5 161.5,-160.5"/>
<text text-anchor="start" x="169.5" y="-168.3" font-family="arial" font-size="14.00">4</text>
<polygon fill="none" stroke="black" points="0.5,-137.5 0.5,-160.5 161.5,-160.5 161.5,-137.5 0.5,-137.5"/>
<text text-anchor="start" x="62.5" y="-145.3" font-family="arial" font-size="14.00">SDA1</text>
<polygon fill="none" stroke="black" points="161.5,-137.5 161.5,-160.5 185.5,-160.5 185.5,-137.5 161.5,-137.5"/>
<text text-anchor="start" x="169.5" y="-145.3" font-family="arial" font-size="14.00">5</text>
<polygon fill="none" stroke="black" points="0.5,-114.5 0.5,-137.5 161.5,-137.5 161.5,-114.5 0.5,-114.5"/>
<text text-anchor="start" x="22" y="-122.3" font-family="arial" font-size="14.00">SAFETY_SWITCH</text>
<polygon fill="none" stroke="black" points="161.5,-114.5 161.5,-137.5 185.5,-137.5 185.5,-114.5 161.5,-114.5"/>
<text text-anchor="start" x="169.5" y="-122.3" font-family="arial" font-size="14.00">6</text>
<polygon fill="none" stroke="black" points="0.5,-91.5 0.5,-114.5 161.5,-114.5 161.5,-91.5 0.5,-91.5"/>
<text text-anchor="start" x="4.5" y="-99.3" font-family="arial" font-size="14.00">SAFETY_SWITHC_LED</text>
<polygon fill="none" stroke="black" points="161.5,-91.5 161.5,-114.5 185.5,-114.5 185.5,-91.5 161.5,-91.5"/>
<text text-anchor="start" x="169.5" y="-99.3" font-family="arial" font-size="14.00">7</text>
<polygon fill="none" stroke="black" points="0.5,-68.5 0.5,-91.5 161.5,-91.5 161.5,-68.5 0.5,-68.5"/>
<text text-anchor="start" x="49.5" y="-76.3" font-family="arial" font-size="14.00">VDD_3V3</text>
<polygon fill="none" stroke="black" points="161.5,-68.5 161.5,-91.5 185.5,-91.5 185.5,-68.5 161.5,-68.5"/>
<text text-anchor="start" x="169.5" y="-76.3" font-family="arial" font-size="14.00">8</text>
<polygon fill="none" stroke="black" points="0.5,-45.5 0.5,-68.5 161.5,-68.5 161.5,-45.5 0.5,-45.5"/>
<text text-anchor="start" x="53" y="-53.3" font-family="arial" font-size="14.00">BUZZER</text>
<polygon fill="none" stroke="black" points="161.5,-45.5 161.5,-68.5 185.5,-68.5 185.5,-45.5 161.5,-45.5"/>
<text text-anchor="start" x="169.5" y="-53.3" font-family="arial" font-size="14.00">9</text>
<polygon fill="none" stroke="black" points="0.5,-22.5 0.5,-45.5 161.5,-45.5 161.5,-22.5 0.5,-22.5"/>
<text text-anchor="start" x="65" y="-30.3" font-family="arial" font-size="14.00">GND</text>
<polygon fill="none" stroke="black" points="161.5,-22.5 161.5,-45.5 185.5,-45.5 185.5,-22.5 161.5,-22.5"/>
<text text-anchor="start" x="165.5" y="-30.3" font-family="arial" font-size="14.00">10</text>
<polygon fill="none" stroke="black" points="0.5,0.5 0.5,-22.5 185.5,-22.5 185.5,0.5 0.5,0.5"/>
<text text-anchor="start" x="34.5" y="-7.3" font-family="arial" font-size="14.00">to Pixhawk5 GPS1</text>
</g>
<!-- W1 -->
<g id="node3" class="node">
<title>W1</title>
<polygon fill="none" stroke="black" points="536,-336.5 329,-336.5 329,-2.5 536,-2.5 536,-336.5"/>
<polygon fill="none" stroke="black" points="329.5,-313.5 329.5,-336.5 536.5,-336.5 536.5,-313.5 329.5,-313.5"/>
<text text-anchor="start" x="422.5" y="-321.3" font-family="arial" font-size="14.00">W1</text>
<polygon fill="none" stroke="black" points="329.5,-290.5 329.5,-313.5 360.5,-313.5 360.5,-290.5 329.5,-290.5"/>
<text text-anchor="start" x="333.5" y="-298.3" font-family="arial" font-size="14.00">10x</text>
<polygon fill="none" stroke="black" points="360.5,-290.5 360.5,-313.5 492.5,-313.5 492.5,-290.5 360.5,-290.5"/>
<text text-anchor="start" x="364.5" y="-298.3" font-family="arial" font-size="14.00">28 AWG (0.09 mm²)</text>
<polygon fill="none" stroke="black" points="492.5,-290.5 492.5,-313.5 536.5,-313.5 536.5,-290.5 492.5,-290.5"/>
<text text-anchor="start" x="496.5" y="-298.3" font-family="arial" font-size="14.00">0.2 m</text>
<text text-anchor="start" x="367" y="-277.3" font-family="arial" font-size="14.00"> </text>
<text text-anchor="start" x="348" y="-258.3" font-family="arial" font-size="14.00">X1&#45;1:1</text>
<text text-anchor="start" x="423" y="-258.3" font-family="arial" font-size="14.00">RD</text>
<text text-anchor="start" x="476.5" y="-258.3" font-family="arial" font-size="14.00">X1&#45;2:1</text>
<polygon fill="#000000" stroke="transparent" points="329.5,-250.5 329.5,-252.5 536.5,-252.5 536.5,-250.5 329.5,-250.5"/>
<polygon fill="#ff0000" stroke="transparent" points="329.5,-248.5 329.5,-250.5 536.5,-250.5 536.5,-248.5 329.5,-248.5"/>
<polygon fill="#000000" stroke="transparent" points="329.5,-246.5 329.5,-248.5 536.5,-248.5 536.5,-246.5 329.5,-246.5"/>
<text text-anchor="start" x="348" y="-233.3" font-family="arial" font-size="14.00">X1&#45;1:2</text>
<text text-anchor="start" x="424" y="-233.3" font-family="arial" font-size="14.00">BK</text>
<text text-anchor="start" x="476.5" y="-233.3" font-family="arial" font-size="14.00">X1&#45;2:2</text>
<polygon fill="#000000" stroke="transparent" points="329.5,-225.5 329.5,-227.5 536.5,-227.5 536.5,-225.5 329.5,-225.5"/>
<polygon fill="#000000" stroke="transparent" points="329.5,-223.5 329.5,-225.5 536.5,-225.5 536.5,-223.5 329.5,-223.5"/>
<polygon fill="#000000" stroke="transparent" points="329.5,-221.5 329.5,-223.5 536.5,-223.5 536.5,-221.5 329.5,-221.5"/>
<text text-anchor="start" x="348" y="-208.3" font-family="arial" font-size="14.00">X1&#45;1:3</text>
<text text-anchor="start" x="424" y="-208.3" font-family="arial" font-size="14.00">BK</text>
<text text-anchor="start" x="476.5" y="-208.3" font-family="arial" font-size="14.00">X1&#45;2:3</text>
<polygon fill="#000000" stroke="transparent" points="329.5,-200.5 329.5,-202.5 536.5,-202.5 536.5,-200.5 329.5,-200.5"/>
<polygon fill="#000000" stroke="transparent" points="329.5,-198.5 329.5,-200.5 536.5,-200.5 536.5,-198.5 329.5,-198.5"/>
<polygon fill="#000000" stroke="transparent" points="329.5,-196.5 329.5,-198.5 536.5,-198.5 536.5,-196.5 329.5,-196.5"/>
<text text-anchor="start" x="348" y="-183.3" font-family="arial" font-size="14.00">X1&#45;1:4</text>
<text text-anchor="start" x="424" y="-183.3" font-family="arial" font-size="14.00">BK</text>
<text text-anchor="start" x="476.5" y="-183.3" font-family="arial" font-size="14.00">X1&#45;2:4</text>
<polygon fill="#000000" stroke="transparent" points="329.5,-175.5 329.5,-177.5 536.5,-177.5 536.5,-175.5 329.5,-175.5"/>
<polygon fill="#000000" stroke="transparent" points="329.5,-173.5 329.5,-175.5 536.5,-175.5 536.5,-173.5 329.5,-173.5"/>
<polygon fill="#000000" stroke="transparent" points="329.5,-171.5 329.5,-173.5 536.5,-173.5 536.5,-171.5 329.5,-171.5"/>
<text text-anchor="start" x="348" y="-158.3" font-family="arial" font-size="14.00">X1&#45;1:5</text>
<text text-anchor="start" x="424" y="-158.3" font-family="arial" font-size="14.00">BK</text>
<text text-anchor="start" x="476.5" y="-158.3" font-family="arial" font-size="14.00">X1&#45;2:5</text>
<polygon fill="#000000" stroke="transparent" points="329.5,-150.5 329.5,-152.5 536.5,-152.5 536.5,-150.5 329.5,-150.5"/>
<polygon fill="#000000" stroke="transparent" points="329.5,-148.5 329.5,-150.5 536.5,-150.5 536.5,-148.5 329.5,-148.5"/>
<polygon fill="#000000" stroke="transparent" points="329.5,-146.5 329.5,-148.5 536.5,-148.5 536.5,-146.5 329.5,-146.5"/>
<text text-anchor="start" x="348" y="-133.3" font-family="arial" font-size="14.00">X1&#45;1:6</text>
<text text-anchor="start" x="424" y="-133.3" font-family="arial" font-size="14.00">BK</text>
<text text-anchor="start" x="476.5" y="-133.3" font-family="arial" font-size="14.00">X1&#45;2:6</text>
<polygon fill="#000000" stroke="transparent" points="329.5,-125.5 329.5,-127.5 536.5,-127.5 536.5,-125.5 329.5,-125.5"/>
<polygon fill="#000000" stroke="transparent" points="329.5,-123.5 329.5,-125.5 536.5,-125.5 536.5,-123.5 329.5,-123.5"/>
<polygon fill="#000000" stroke="transparent" points="329.5,-121.5 329.5,-123.5 536.5,-123.5 536.5,-121.5 329.5,-121.5"/>
<text text-anchor="start" x="348" y="-108.3" font-family="arial" font-size="14.00">X1&#45;1:7</text>
<text text-anchor="start" x="424" y="-108.3" font-family="arial" font-size="14.00">BK</text>
<text text-anchor="start" x="476.5" y="-108.3" font-family="arial" font-size="14.00">X1&#45;2:7</text>
<polygon fill="#000000" stroke="transparent" points="329.5,-100.5 329.5,-102.5 536.5,-102.5 536.5,-100.5 329.5,-100.5"/>
<polygon fill="#000000" stroke="transparent" points="329.5,-98.5 329.5,-100.5 536.5,-100.5 536.5,-98.5 329.5,-98.5"/>
<polygon fill="#000000" stroke="transparent" points="329.5,-96.5 329.5,-98.5 536.5,-98.5 536.5,-96.5 329.5,-96.5"/>
<text text-anchor="start" x="348" y="-83.3" font-family="arial" font-size="14.00">X1&#45;1:8</text>
<text text-anchor="start" x="424" y="-83.3" font-family="arial" font-size="14.00">BK</text>
<text text-anchor="start" x="476.5" y="-83.3" font-family="arial" font-size="14.00">X1&#45;2:8</text>
<polygon fill="#000000" stroke="transparent" points="329.5,-75.5 329.5,-77.5 536.5,-77.5 536.5,-75.5 329.5,-75.5"/>
<polygon fill="#000000" stroke="transparent" points="329.5,-73.5 329.5,-75.5 536.5,-75.5 536.5,-73.5 329.5,-73.5"/>
<polygon fill="#000000" stroke="transparent" points="329.5,-71.5 329.5,-73.5 536.5,-73.5 536.5,-71.5 329.5,-71.5"/>
<text text-anchor="start" x="348" y="-58.3" font-family="arial" font-size="14.00">X1&#45;1:9</text>
<text text-anchor="start" x="424" y="-58.3" font-family="arial" font-size="14.00">BK</text>
<text text-anchor="start" x="476.5" y="-58.3" font-family="arial" font-size="14.00">X1&#45;2:9</text>
<polygon fill="#000000" stroke="transparent" points="329.5,-50.5 329.5,-52.5 536.5,-52.5 536.5,-50.5 329.5,-50.5"/>
<polygon fill="#000000" stroke="transparent" points="329.5,-48.5 329.5,-50.5 536.5,-50.5 536.5,-48.5 329.5,-48.5"/>
<polygon fill="#000000" stroke="transparent" points="329.5,-46.5 329.5,-48.5 536.5,-48.5 536.5,-46.5 329.5,-46.5"/>
<text text-anchor="start" x="344" y="-33.3" font-family="arial" font-size="14.00">X1&#45;1:10</text>
<text text-anchor="start" x="424" y="-33.3" font-family="arial" font-size="14.00">BK</text>
<text text-anchor="start" x="472.5" y="-33.3" font-family="arial" font-size="14.00">X1&#45;2:10</text>
<polygon fill="#000000" stroke="transparent" points="329.5,-25.5 329.5,-27.5 536.5,-27.5 536.5,-25.5 329.5,-25.5"/>
<polygon fill="#000000" stroke="transparent" points="329.5,-23.5 329.5,-25.5 536.5,-25.5 536.5,-23.5 329.5,-23.5"/>
<polygon fill="#000000" stroke="transparent" points="329.5,-21.5 329.5,-23.5 536.5,-23.5 536.5,-21.5 329.5,-21.5"/>
<text text-anchor="start" x="367" y="-8.3" font-family="arial" font-size="14.00"> </text>
</g>
<!-- X1&#45;1&#45;&#45;W1 -->
<g id="edge1" class="edge">
<title>X1&#45;1:e&#45;&#45;W1:w</title>
<path fill="none" stroke="#000000" stroke-width="2" d="M185,-239.5C250,-239.72 265.8,-247.72 329,-247.5"/>
<path fill="none" stroke="#ff0000" stroke-width="2" d="M185,-241.5C249.1,-241.5 264.9,-249.5 329,-249.5"/>
<path fill="none" stroke="#000000" stroke-width="2" d="M185,-243.5C248.2,-243.28 264,-251.28 329,-251.5"/>
</g>
<!-- X1&#45;1&#45;&#45;W1 -->
<g id="edge3" class="edge">
<title>X1&#45;1:e&#45;&#45;W1:w</title>
<path fill="none" stroke="#000000" stroke-width="2" d="M185,-216.5C249.76,-216.63 265.65,-222.63 329,-222.5"/>
<path fill="none" stroke="#000000" stroke-width="2" d="M185,-218.5C249.06,-218.5 264.94,-224.5 329,-224.5"/>
<path fill="none" stroke="#000000" stroke-width="2" d="M185,-220.5C248.35,-220.37 264.24,-226.37 329,-226.5"/>
</g>
<!-- X1&#45;1&#45;&#45;W1 -->
<g id="edge5" class="edge">
<title>X1&#45;1:e&#45;&#45;W1:w</title>
<path fill="none" stroke="#000000" stroke-width="2" d="M185,-193.5C249.51,-193.56 265.46,-197.56 329,-197.5"/>
<path fill="none" stroke="#000000" stroke-width="2" d="M185,-195.5C249.02,-195.5 264.98,-199.5 329,-199.5"/>
<path fill="none" stroke="#000000" stroke-width="2" d="M185,-197.5C248.54,-197.44 264.49,-201.44 329,-201.5"/>
</g>
<!-- X1&#45;1&#45;&#45;W1 -->
<g id="edge7" class="edge">
<title>X1&#45;1:e&#45;&#45;W1:w</title>
<path fill="none" stroke="#000000" stroke-width="2" d="M185,-170.5C249.25,-170.52 265.24,-172.52 329,-172.5"/>
<path fill="none" stroke="#000000" stroke-width="2" d="M185,-172.5C249.01,-172.5 264.99,-174.5 329,-174.5"/>
<path fill="none" stroke="#000000" stroke-width="2" d="M185,-174.5C248.76,-174.48 264.75,-176.48 329,-176.5"/>
</g>
<!-- X1&#45;1&#45;&#45;W1 -->
<g id="edge9" class="edge">
<title>X1&#45;1:e&#45;&#45;W1:w</title>
<path fill="none" stroke="#000000" stroke-width="2" d="M185,-146.5C249.13,-146.5 265.12,-147.5 329,-147.5"/>
<path fill="none" stroke="#000000" stroke-width="2" d="M185,-148.5C249,-148.5 265,-149.5 329,-149.5"/>
<path fill="none" stroke="#000000" stroke-width="2" d="M185,-150.5C248.88,-150.5 264.87,-151.5 329,-151.5"/>
</g>
<!-- X1&#45;1&#45;&#45;W1 -->
<g id="edge11" class="edge">
<title>X1&#45;1:e&#45;&#45;W1:w</title>
<path fill="none" stroke="#000000" stroke-width="2" d="M185,-123.5C248.88,-123.5 264.87,-122.5 329,-122.5"/>
<path fill="none" stroke="#000000" stroke-width="2" d="M185,-125.5C249,-125.5 265,-124.5 329,-124.5"/>
<path fill="none" stroke="#000000" stroke-width="2" d="M185,-127.5C249.13,-127.5 265.12,-126.5 329,-126.5"/>
</g>
<!-- X1&#45;1&#45;&#45;W1 -->
<g id="edge13" class="edge">
<title>X1&#45;1:e&#45;&#45;W1:w</title>
<path fill="none" stroke="#000000" stroke-width="2" d="M185,-100.5C248.64,-100.53 264.62,-97.53 329,-97.5"/>
<path fill="none" stroke="#000000" stroke-width="2" d="M185,-102.5C249.01,-102.5 264.99,-99.5 329,-99.5"/>
<path fill="none" stroke="#000000" stroke-width="2" d="M185,-104.5C249.38,-104.47 265.36,-101.47 329,-101.5"/>
</g>
<!-- X1&#45;1&#45;&#45;W1 -->
<g id="edge15" class="edge">
<title>X1&#45;1:e&#45;&#45;W1:w</title>
<path fill="none" stroke="#000000" stroke-width="2" d="M185,-77.5C248.44,-77.59 264.36,-72.59 329,-72.5"/>
<path fill="none" stroke="#000000" stroke-width="2" d="M185,-79.5C249.04,-79.5 264.96,-74.5 329,-74.5"/>
<path fill="none" stroke="#000000" stroke-width="2" d="M185,-81.5C249.64,-81.41 265.56,-76.41 329,-76.5"/>
</g>
<!-- X1&#45;1&#45;&#45;W1 -->
<g id="edge17" class="edge">
<title>X1&#45;1:e&#45;&#45;W1:w</title>
<path fill="none" stroke="#000000" stroke-width="2" d="M185,-54.5C248.27,-54.67 264.12,-47.67 329,-47.5"/>
<path fill="none" stroke="#000000" stroke-width="2" d="M185,-56.5C249.08,-56.5 264.92,-49.5 329,-49.5"/>
<path fill="none" stroke="#000000" stroke-width="2" d="M185,-58.5C249.88,-58.33 265.73,-51.33 329,-51.5"/>
</g>
<!-- X1&#45;1&#45;&#45;W1 -->
<g id="edge19" class="edge">
<title>X1&#45;1:e&#45;&#45;W1:w</title>
<path fill="none" stroke="#000000" stroke-width="2" d="M185,-31.5C248.13,-31.76 263.88,-22.76 329,-22.5"/>
<path fill="none" stroke="#000000" stroke-width="2" d="M185,-33.5C249.12,-33.5 264.88,-24.5 329,-24.5"/>
<path fill="none" stroke="#000000" stroke-width="2" d="M185,-35.5C250.12,-35.24 265.87,-26.24 329,-26.5"/>
</g>
<!-- X1&#45;2 -->
<g id="node2" class="node">
<title>X1&#45;2</title>
<polygon fill="white" stroke="transparent" points="865,-299 680,-299 680,0 865,0 865,-299"/>
<polygon fill="none" stroke="black" points="680.5,-275.5 680.5,-298.5 865.5,-298.5 865.5,-275.5 680.5,-275.5"/>
<text text-anchor="start" x="758" y="-283.3" font-family="arial" font-size="14.00">X1&#45;2</text>
<polygon fill="none" stroke="black" points="680.5,-252.5 680.5,-275.5 748.5,-275.5 748.5,-252.5 680.5,-252.5"/>
<text text-anchor="start" x="689.5" y="-260.3" font-family="arial" font-size="14.00">JST GH</text>
<polygon fill="none" stroke="black" points="748.5,-252.5 748.5,-275.5 809.5,-275.5 809.5,-252.5 748.5,-252.5"/>
<text text-anchor="start" x="757.5" y="-260.3" font-family="arial" font-size="14.00">female</text>
<polygon fill="none" stroke="black" points="809.5,-252.5 809.5,-275.5 865.5,-275.5 865.5,-252.5 809.5,-252.5"/>
<text text-anchor="start" x="818" y="-260.3" font-family="arial" font-size="14.00">10&#45;pin</text>
<polygon fill="none" stroke="black" points="680.5,-229.5 680.5,-252.5 704.5,-252.5 704.5,-229.5 680.5,-229.5"/>
<text text-anchor="start" x="688.5" y="-237.3" font-family="arial" font-size="14.00">1</text>
<polygon fill="none" stroke="black" points="704.5,-229.5 704.5,-252.5 865.5,-252.5 865.5,-229.5 704.5,-229.5"/>
<text text-anchor="start" x="770" y="-237.3" font-family="arial" font-size="14.00">VCC</text>
<polygon fill="none" stroke="black" points="680.5,-206.5 680.5,-229.5 704.5,-229.5 704.5,-206.5 680.5,-206.5"/>
<text text-anchor="start" x="688.5" y="-214.3" font-family="arial" font-size="14.00">2</text>
<polygon fill="none" stroke="black" points="704.5,-206.5 704.5,-229.5 865.5,-229.5 865.5,-206.5 704.5,-206.5"/>
<text text-anchor="start" x="772" y="-214.3" font-family="arial" font-size="14.00">TX1</text>
<polygon fill="none" stroke="black" points="680.5,-183.5 680.5,-206.5 704.5,-206.5 704.5,-183.5 680.5,-183.5"/>
<text text-anchor="start" x="688.5" y="-191.3" font-family="arial" font-size="14.00">3</text>
<polygon fill="none" stroke="black" points="704.5,-183.5 704.5,-206.5 865.5,-206.5 865.5,-183.5 704.5,-183.5"/>
<text text-anchor="start" x="771" y="-191.3" font-family="arial" font-size="14.00">RX1</text>
<polygon fill="none" stroke="black" points="680.5,-160.5 680.5,-183.5 704.5,-183.5 704.5,-160.5 680.5,-160.5"/>
<text text-anchor="start" x="688.5" y="-168.3" font-family="arial" font-size="14.00">4</text>
<polygon fill="none" stroke="black" points="704.5,-160.5 704.5,-183.5 865.5,-183.5 865.5,-160.5 704.5,-160.5"/>
<text text-anchor="start" x="767" y="-168.3" font-family="arial" font-size="14.00">SCL1</text>
<polygon fill="none" stroke="black" points="680.5,-137.5 680.5,-160.5 704.5,-160.5 704.5,-137.5 680.5,-137.5"/>
<text text-anchor="start" x="688.5" y="-145.3" font-family="arial" font-size="14.00">5</text>
<polygon fill="none" stroke="black" points="704.5,-137.5 704.5,-160.5 865.5,-160.5 865.5,-137.5 704.5,-137.5"/>
<text text-anchor="start" x="766.5" y="-145.3" font-family="arial" font-size="14.00">SDA1</text>
<polygon fill="none" stroke="black" points="680.5,-114.5 680.5,-137.5 704.5,-137.5 704.5,-114.5 680.5,-114.5"/>
<text text-anchor="start" x="688.5" y="-122.3" font-family="arial" font-size="14.00">6</text>
<polygon fill="none" stroke="black" points="704.5,-114.5 704.5,-137.5 865.5,-137.5 865.5,-114.5 704.5,-114.5"/>
<text text-anchor="start" x="726" y="-122.3" font-family="arial" font-size="14.00">SAFETY_SWITCH</text>
<polygon fill="none" stroke="black" points="680.5,-91.5 680.5,-114.5 704.5,-114.5 704.5,-91.5 680.5,-91.5"/>
<text text-anchor="start" x="688.5" y="-99.3" font-family="arial" font-size="14.00">7</text>
<polygon fill="none" stroke="black" points="704.5,-91.5 704.5,-114.5 865.5,-114.5 865.5,-91.5 704.5,-91.5"/>
<text text-anchor="start" x="708.5" y="-99.3" font-family="arial" font-size="14.00">SAFETY_SWITHC_LED</text>
<polygon fill="none" stroke="black" points="680.5,-68.5 680.5,-91.5 704.5,-91.5 704.5,-68.5 680.5,-68.5"/>
<text text-anchor="start" x="688.5" y="-76.3" font-family="arial" font-size="14.00">8</text>
<polygon fill="none" stroke="black" points="704.5,-68.5 704.5,-91.5 865.5,-91.5 865.5,-68.5 704.5,-68.5"/>
<text text-anchor="start" x="753.5" y="-76.3" font-family="arial" font-size="14.00">VDD_3V3</text>
<polygon fill="none" stroke="black" points="680.5,-45.5 680.5,-68.5 704.5,-68.5 704.5,-45.5 680.5,-45.5"/>
<text text-anchor="start" x="688.5" y="-53.3" font-family="arial" font-size="14.00">9</text>
<polygon fill="none" stroke="black" points="704.5,-45.5 704.5,-68.5 865.5,-68.5 865.5,-45.5 704.5,-45.5"/>
<text text-anchor="start" x="757" y="-53.3" font-family="arial" font-size="14.00">BUZZER</text>
<polygon fill="none" stroke="black" points="680.5,-22.5 680.5,-45.5 704.5,-45.5 704.5,-22.5 680.5,-22.5"/>
<text text-anchor="start" x="684.5" y="-30.3" font-family="arial" font-size="14.00">10</text>
<polygon fill="none" stroke="black" points="704.5,-22.5 704.5,-45.5 865.5,-45.5 865.5,-22.5 704.5,-22.5"/>
<text text-anchor="start" x="769" y="-30.3" font-family="arial" font-size="14.00">GND</text>
<polygon fill="none" stroke="black" points="680.5,0.5 680.5,-22.5 865.5,-22.5 865.5,0.5 680.5,0.5"/>
<text text-anchor="start" x="750" y="-7.3" font-family="arial" font-size="14.00">to GPS</text>
</g>
<!-- W1&#45;&#45;X1&#45;2 -->
<g id="edge2" class="edge">
<title>W1:e&#45;&#45;X1&#45;2:w</title>
<path fill="none" stroke="#000000" stroke-width="2" d="M536,-247.5C599.2,-247.72 615,-239.72 680,-239.5"/>
<path fill="none" stroke="#ff0000" stroke-width="2" d="M536,-249.5C600.1,-249.5 615.9,-241.5 680,-241.5"/>
<path fill="none" stroke="#000000" stroke-width="2" d="M536,-251.5C601,-251.28 616.8,-243.28 680,-243.5"/>
</g>
<!-- W1&#45;&#45;X1&#45;2 -->
<g id="edge4" class="edge">
<title>W1:e&#45;&#45;X1&#45;2:w</title>
<path fill="none" stroke="#000000" stroke-width="2" d="M536,-222.5C599.35,-222.63 615.24,-216.63 680,-216.5"/>
<path fill="none" stroke="#000000" stroke-width="2" d="M536,-224.5C600.06,-224.5 615.94,-218.5 680,-218.5"/>
<path fill="none" stroke="#000000" stroke-width="2" d="M536,-226.5C600.76,-226.37 616.65,-220.37 680,-220.5"/>
</g>
<!-- W1&#45;&#45;X1&#45;2 -->
<g id="edge6" class="edge">
<title>W1:e&#45;&#45;X1&#45;2:w</title>
<path fill="none" stroke="#000000" stroke-width="2" d="M536,-197.5C599.54,-197.56 615.49,-193.56 680,-193.5"/>
<path fill="none" stroke="#000000" stroke-width="2" d="M536,-199.5C600.02,-199.5 615.98,-195.5 680,-195.5"/>
<path fill="none" stroke="#000000" stroke-width="2" d="M536,-201.5C600.51,-201.44 616.46,-197.44 680,-197.5"/>
</g>
<!-- W1&#45;&#45;X1&#45;2 -->
<g id="edge8" class="edge">
<title>W1:e&#45;&#45;X1&#45;2:w</title>
<path fill="none" stroke="#000000" stroke-width="2" d="M536,-172.5C599.76,-172.52 615.75,-170.52 680,-170.5"/>
<path fill="none" stroke="#000000" stroke-width="2" d="M536,-174.5C600.01,-174.5 615.99,-172.5 680,-172.5"/>
<path fill="none" stroke="#000000" stroke-width="2" d="M536,-176.5C600.25,-176.48 616.24,-174.48 680,-174.5"/>
</g>
<!-- W1&#45;&#45;X1&#45;2 -->
<g id="edge10" class="edge">
<title>W1:e&#45;&#45;X1&#45;2:w</title>
<path fill="none" stroke="#000000" stroke-width="2" d="M536,-147.5C599.88,-147.5 615.87,-146.5 680,-146.5"/>
<path fill="none" stroke="#000000" stroke-width="2" d="M536,-149.5C600,-149.5 616,-148.5 680,-148.5"/>
<path fill="none" stroke="#000000" stroke-width="2" d="M536,-151.5C600.13,-151.5 616.12,-150.5 680,-150.5"/>
</g>
<!-- W1&#45;&#45;X1&#45;2 -->
<g id="edge12" class="edge">
<title>W1:e&#45;&#45;X1&#45;2:w</title>
<path fill="none" stroke="#000000" stroke-width="2" d="M536,-122.5C600.13,-122.5 616.12,-123.5 680,-123.5"/>
<path fill="none" stroke="#000000" stroke-width="2" d="M536,-124.5C600,-124.5 616,-125.5 680,-125.5"/>
<path fill="none" stroke="#000000" stroke-width="2" d="M536,-126.5C599.88,-126.5 615.87,-127.5 680,-127.5"/>
</g>
<!-- W1&#45;&#45;X1&#45;2 -->
<g id="edge14" class="edge">
<title>W1:e&#45;&#45;X1&#45;2:w</title>
<path fill="none" stroke="#000000" stroke-width="2" d="M536,-97.5C600.38,-97.53 616.36,-100.53 680,-100.5"/>
<path fill="none" stroke="#000000" stroke-width="2" d="M536,-99.5C600.01,-99.5 615.99,-102.5 680,-102.5"/>
<path fill="none" stroke="#000000" stroke-width="2" d="M536,-101.5C599.64,-101.47 615.62,-104.47 680,-104.5"/>
</g>
<!-- W1&#45;&#45;X1&#45;2 -->
<g id="edge16" class="edge">
<title>W1:e&#45;&#45;X1&#45;2:w</title>
<path fill="none" stroke="#000000" stroke-width="2" d="M536,-72.5C600.64,-72.59 616.56,-77.59 680,-77.5"/>
<path fill="none" stroke="#000000" stroke-width="2" d="M536,-74.5C600.04,-74.5 615.96,-79.5 680,-79.5"/>
<path fill="none" stroke="#000000" stroke-width="2" d="M536,-76.5C599.44,-76.41 615.36,-81.41 680,-81.5"/>
</g>
<!-- W1&#45;&#45;X1&#45;2 -->
<g id="edge18" class="edge">
<title>W1:e&#45;&#45;X1&#45;2:w</title>
<path fill="none" stroke="#000000" stroke-width="2" d="M536,-47.5C600.88,-47.67 616.73,-54.67 680,-54.5"/>
<path fill="none" stroke="#000000" stroke-width="2" d="M536,-49.5C600.08,-49.5 615.92,-56.5 680,-56.5"/>
<path fill="none" stroke="#000000" stroke-width="2" d="M536,-51.5C599.27,-51.33 615.12,-58.33 680,-58.5"/>
</g>
<!-- W1&#45;&#45;X1&#45;2 -->
<g id="edge20" class="edge">
<title>W1:e&#45;&#45;X1&#45;2:w</title>
<path fill="none" stroke="#000000" stroke-width="2" d="M536,-22.5C601.12,-22.76 616.87,-31.76 680,-31.5"/>
<path fill="none" stroke="#000000" stroke-width="2" d="M536,-24.5C600.12,-24.5 615.88,-33.5 680,-33.5"/>
<path fill="none" stroke="#000000" stroke-width="2" d="M536,-26.5C599.13,-26.24 614.88,-35.24 680,-35.5"/>
</g>
</g>
</svg>
