<?xml version="1.0" encoding="UTF-8" standalone="no"?>
<!DOCTYPE svg PUBLIC "-//W3C//DTD SVG 1.1//EN"
 "http://www.w3.org/Graphics/SVG/1.1/DTD/svg11.dtd">
<!-- Generated by graphviz version 2.49.0 (20210828.1703)
 -->
<!-- Pages: 1 -->
<svg width="762pt" height="178pt"
 viewBox="0.00 0.00 762.00 177.50" xmlns="http://www.w3.org/2000/svg" xmlns:xlink="http://www.w3.org/1999/xlink">
<g id="graph0" class="graph" transform="scale(1 1) rotate(0) translate(4 173.5)">
<polygon fill="white" stroke="transparent" points="-4,4 -4,-173.5 758,-173.5 758,4 -4,4"/>
<!-- X2&#45;1 -->
<g id="node1" class="node">
<title>X2&#45;1</title>
<polygon fill="white" stroke="transparent" points="126,-138 0,-138 0,0 126,0 126,-138"/>
<polygon fill="none" stroke="black" points="0,-115 0,-138 126,-138 126,-115 0,-115"/>
<text text-anchor="start" x="48" y="-122.8" font-family="arial" font-size="14.00">X2&#45;1</text>
<polygon fill="none" stroke="black" points="0,-92 0,-115 31,-115 31,-92 0,-92"/>
<text text-anchor="start" x="8" y="-99.8" font-family="arial" font-size="14.00">QI</text>
<polygon fill="none" stroke="black" points="31,-92 31,-115 78,-115 78,-92 31,-92"/>
<text text-anchor="start" x="39" y="-99.8" font-family="arial" font-size="14.00">male</text>
<polygon fill="none" stroke="black" points="78,-92 78,-115 126,-115 126,-92 78,-92"/>
<text text-anchor="start" x="86" y="-99.8" font-family="arial" font-size="14.00">3&#45;pin</text>
<polygon fill="none" stroke="black" points="0,-69 0,-92 91,-92 91,-69 0,-69"/>
<text text-anchor="start" x="13.5" y="-76.8" font-family="arial" font-size="14.00">SBUS_3V</text>
<polygon fill="none" stroke="black" points="91,-69 91,-92 126,-92 126,-69 91,-69"/>
<text text-anchor="start" x="104.5" y="-76.8" font-family="arial" font-size="14.00">1</text>
<polygon fill="none" stroke="black" points="0,-46 0,-69 91,-69 91,-46 0,-46"/>
<text text-anchor="start" x="18" y="-53.8" font-family="arial" font-size="14.00">VDD_5V</text>
<polygon fill="none" stroke="black" points="91,-46 91,-69 126,-69 126,-46 91,-46"/>
<text text-anchor="start" x="104.5" y="-53.8" font-family="arial" font-size="14.00">2</text>
<polygon fill="none" stroke="black" points="0,-23 0,-46 91,-46 91,-23 0,-23"/>
<text text-anchor="start" x="29.5" y="-30.8" font-family="arial" font-size="14.00">GND</text>
<polygon fill="none" stroke="black" points="91,-23 91,-46 126,-46 126,-23 91,-23"/>
<text text-anchor="start" x="104.5" y="-30.8" font-family="arial" font-size="14.00">3</text>
<polygon fill="none" stroke="black" points="0,0 0,-23 126,-23 126,0 0,0"/>
<text text-anchor="start" x="4" y="-7.8" font-family="arial" font-size="14.00">to Pixhawk5 RC IN</text>
</g>
<!-- W2 -->
<g id="node3" class="node">
<title>W2</title>
<polygon fill="none" stroke="black" points="469,-169.5 270,-169.5 270,-10.5 469,-10.5 469,-169.5"/>
<polygon fill="none" stroke="black" points="270.5,-146 270.5,-169 469.5,-169 469.5,-146 270.5,-146"/>
<text text-anchor="start" x="359.5" y="-153.8" font-family="arial" font-size="14.00">W2</text>
<polygon fill="none" stroke="black" points="270.5,-123 270.5,-146 293.5,-146 293.5,-123 270.5,-123"/>
<text text-anchor="start" x="274.5" y="-130.8" font-family="arial" font-size="14.00">3x</text>
<polygon fill="none" stroke="black" points="293.5,-123 293.5,-146 425.5,-146 425.5,-123 293.5,-123"/>
<text text-anchor="start" x="297.5" y="-130.8" font-family="arial" font-size="14.00">28 AWG (0.09 mm²)</text>
<polygon fill="none" stroke="black" points="425.5,-123 425.5,-146 469.5,-146 469.5,-123 425.5,-123"/>
<text text-anchor="start" x="429.5" y="-130.8" font-family="arial" font-size="14.00">0.3 m</text>
<text text-anchor="start" x="305" y="-109.8" font-family="arial" font-size="14.00"> </text>
<text text-anchor="start" x="286" y="-90.8" font-family="arial" font-size="14.00">X2&#45;1:1</text>
<text text-anchor="start" x="358.5" y="-90.8" font-family="arial" font-size="14.00">WH</text>
<text text-anchor="start" x="412.5" y="-90.8" font-family="arial" font-size="14.00">X2&#45;2:1</text>
<polygon fill="#000000" stroke="transparent" points="270.5,-83 270.5,-85 469.5,-85 469.5,-83 270.5,-83"/>
<polygon fill="#ffffff" stroke="transparent" points="270.5,-81 270.5,-83 469.5,-83 469.5,-81 270.5,-81"/>
<polygon fill="#000000" stroke="transparent" points="270.5,-79 270.5,-81 469.5,-81 469.5,-79 270.5,-79"/>
<text text-anchor="start" x="286" y="-65.8" font-family="arial" font-size="14.00">X2&#45;1:2</text>
<text text-anchor="start" x="360" y="-65.8" font-family="arial" font-size="14.00">RD</text>
<text text-anchor="start" x="412.5" y="-65.8" font-family="arial" font-size="14.00">X2&#45;2:2</text>
<polygon fill="#000000" stroke="transparent" points="270.5,-58 270.5,-60 469.5,-60 469.5,-58 270.5,-58"/>
<polygon fill="#ff0000" stroke="transparent" points="270.5,-56 270.5,-58 469.5,-58 469.5,-56 270.5,-56"/>
<polygon fill="#000000" stroke="transparent" points="270.5,-54 270.5,-56 469.5,-56 469.5,-54 270.5,-54"/>
<text text-anchor="start" x="286" y="-40.8" font-family="arial" font-size="14.00">X2&#45;1:3</text>
<text text-anchor="start" x="361" y="-40.8" font-family="arial" font-size="14.00">BK</text>
<text text-anchor="start" x="412.5" y="-40.8" font-family="arial" font-size="14.00">X2&#45;2:3</text>
<polygon fill="#000000" stroke="transparent" points="270.5,-33 270.5,-35 469.5,-35 469.5,-33 270.5,-33"/>
<polygon fill="#000000" stroke="transparent" points="270.5,-31 270.5,-33 469.5,-33 469.5,-31 270.5,-31"/>
<polygon fill="#000000" stroke="transparent" points="270.5,-29 270.5,-31 469.5,-31 469.5,-29 270.5,-29"/>
<text text-anchor="start" x="305" y="-15.8" font-family="arial" font-size="14.00"> </text>
</g>
<!-- X2&#45;1&#45;&#45;W2 -->
<g id="edge1" class="edge">
<title>X2&#45;1:e&#45;&#45;W2:w</title>
<path fill="none" stroke="#000000" stroke-width="2" d="M126,-79C190.13,-79 206.12,-80 270,-80"/>
<path fill="none" stroke="#ffffff" stroke-width="2" d="M126,-81C190,-81 206,-82 270,-82"/>
<path fill="none" stroke="#000000" stroke-width="2" d="M126,-83C189.88,-83 205.87,-84 270,-84"/>
</g>
<!-- X2&#45;1&#45;&#45;W2 -->
<g id="edge3" class="edge">
<title>X2&#45;1:e&#45;&#45;W2:w</title>
<path fill="none" stroke="#000000" stroke-width="2" d="M126,-55C190,-55 206,-55 270,-55"/>
<path fill="none" stroke="#ff0000" stroke-width="2" d="M126,-57C190,-57 206,-57 270,-57"/>
<path fill="none" stroke="#000000" stroke-width="2" d="M126,-59C190,-59 206,-59 270,-59"/>
</g>
<!-- X2&#45;1&#45;&#45;W2 -->
<g id="edge5" class="edge">
<title>X2&#45;1:e&#45;&#45;W2:w</title>
<path fill="none" stroke="#000000" stroke-width="2" d="M126,-32C189.76,-32.02 205.75,-30.02 270,-30"/>
<path fill="none" stroke="#000000" stroke-width="2" d="M126,-34C190.01,-34 205.99,-32 270,-32"/>
<path fill="none" stroke="#000000" stroke-width="2" d="M126,-36C190.25,-35.98 206.24,-33.98 270,-34"/>
</g>
<!-- X2&#45;2 -->
<g id="node2" class="node">
<title>X2&#45;2</title>
<polygon fill="white" stroke="transparent" points="754,-138 613,-138 613,0 754,0 754,-138"/>
<polygon fill="none" stroke="black" points="613.5,-115 613.5,-138 754.5,-138 754.5,-115 613.5,-115"/>
<text text-anchor="start" x="669" y="-122.8" font-family="arial" font-size="14.00">X2&#45;2</text>
<polygon fill="none" stroke="black" points="613.5,-92 613.5,-115 649.5,-115 649.5,-92 613.5,-92"/>
<text text-anchor="start" x="624" y="-99.8" font-family="arial" font-size="14.00">QI</text>
<polygon fill="none" stroke="black" points="649.5,-92 649.5,-115 701.5,-115 701.5,-92 649.5,-92"/>
<text text-anchor="start" x="660" y="-99.8" font-family="arial" font-size="14.00">male</text>
<polygon fill="none" stroke="black" points="701.5,-92 701.5,-115 754.5,-115 754.5,-92 701.5,-92"/>
<text text-anchor="start" x="712" y="-99.8" font-family="arial" font-size="14.00">3&#45;pin</text>
<polygon fill="none" stroke="black" points="613.5,-69 613.5,-92 656.5,-92 656.5,-69 613.5,-69"/>
<text text-anchor="start" x="631" y="-76.8" font-family="arial" font-size="14.00">1</text>
<polygon fill="none" stroke="black" points="656.5,-69 656.5,-92 754.5,-92 754.5,-69 656.5,-69"/>
<text text-anchor="start" x="673.5" y="-76.8" font-family="arial" font-size="14.00">SBUS_3V</text>
<polygon fill="none" stroke="black" points="613.5,-46 613.5,-69 656.5,-69 656.5,-46 613.5,-46"/>
<text text-anchor="start" x="631" y="-53.8" font-family="arial" font-size="14.00">2</text>
<polygon fill="none" stroke="black" points="656.5,-46 656.5,-69 754.5,-69 754.5,-46 656.5,-46"/>
<text text-anchor="start" x="678" y="-53.8" font-family="arial" font-size="14.00">VDD_5V</text>
<polygon fill="none" stroke="black" points="613.5,-23 613.5,-46 656.5,-46 656.5,-23 613.5,-23"/>
<text text-anchor="start" x="631" y="-30.8" font-family="arial" font-size="14.00">3</text>
<polygon fill="none" stroke="black" points="656.5,-23 656.5,-46 754.5,-46 754.5,-23 656.5,-23"/>
<text text-anchor="start" x="689.5" y="-30.8" font-family="arial" font-size="14.00">GND</text>
<polygon fill="none" stroke="black" points="613.5,0 613.5,-23 754.5,-23 754.5,0 613.5,0"/>
<text text-anchor="start" x="617.5" y="-7.8" font-family="arial" font-size="14.00">to Futaba RS3008SB</text>
</g>
<!-- W2&#45;&#45;X2&#45;2 -->
<g id="edge2" class="edge">
<title>W2:e&#45;&#45;X2&#45;2:w</title>
<path fill="none" stroke="#000000" stroke-width="2" d="M469,-80C532.88,-80 548.87,-79 613,-79"/>
<path fill="none" stroke="#ffffff" stroke-width="2" d="M469,-82C533,-82 549,-81 613,-81"/>
<path fill="none" stroke="#000000" stroke-width="2" d="M469,-84C533.13,-84 549.12,-83 613,-83"/>
</g>
<!-- W2&#45;&#45;X2&#45;2 -->
<g id="edge4" class="edge">
<title>W2:e&#45;&#45;X2&#45;2:w</title>
<path fill="none" stroke="#000000" stroke-width="2" d="M469,-55C533,-55 549,-55 613,-55"/>
<path fill="none" stroke="#ff0000" stroke-width="2" d="M469,-57C533,-57 549,-57 613,-57"/>
<path fill="none" stroke="#000000" stroke-width="2" d="M469,-59C533,-59 549,-59 613,-59"/>
</g>
<!-- W2&#45;&#45;X2&#45;2 -->
<g id="edge6" class="edge">
<title>W2:e&#45;&#45;X2&#45;2:w</title>
<path fill="none" stroke="#000000" stroke-width="2" d="M469,-30C533.25,-30.02 549.24,-32.02 613,-32"/>
<path fill="none" stroke="#000000" stroke-width="2" d="M469,-32C533.01,-32 548.99,-34 613,-34"/>
<path fill="none" stroke="#000000" stroke-width="2" d="M469,-34C532.76,-33.98 548.75,-35.98 613,-36"/>
</g>
</g>
</svg>
