<?xml version="1.0" encoding="UTF-8" standalone="no"?>
<!DOCTYPE svg PUBLIC "-//W3C//DTD SVG 1.1//EN"
 "http://www.w3.org/Graphics/SVG/1.1/DTD/svg11.dtd">
<!-- Generated by graphviz version 2.49.0 (20210828.1703)
 -->
<!-- Pages: 1 -->
<svg width="665pt" height="774pt"
 viewBox="0.00 0.00 665.00 774.00" xmlns="http://www.w3.org/2000/svg" xmlns:xlink="http://www.w3.org/1999/xlink">
<g id="graph0" class="graph" transform="scale(1 1) rotate(0) translate(4 770)">
<polygon fill="white" stroke="transparent" points="-4,4 -4,-770 661,-770 661,4 -4,4"/>
<!-- X1 -->
<g id="node1" class="node">
<title>X1</title>
<polygon fill="white" stroke="transparent" points="121,-736 0,-736 0,-644 121,-644 121,-736"/>
<polygon fill="none" stroke="black" points="0.5,-713 0.5,-736 121.5,-736 121.5,-713 0.5,-713"/>
<text text-anchor="start" x="52" y="-720.8" font-family="arial" font-size="14.00">X1</text>
<polygon fill="none" stroke="black" points="0.5,-690 0.5,-713 42.5,-713 42.5,-690 0.5,-690"/>
<text text-anchor="start" x="4.5" y="-697.8" font-family="arial" font-size="14.00">XT30</text>
<polygon fill="none" stroke="black" points="42.5,-690 42.5,-713 81.5,-713 81.5,-690 42.5,-690"/>
<text text-anchor="start" x="46.5" y="-697.8" font-family="arial" font-size="14.00">male</text>
<polygon fill="none" stroke="black" points="81.5,-690 81.5,-713 121.5,-713 121.5,-690 81.5,-690"/>
<text text-anchor="start" x="85.5" y="-697.8" font-family="arial" font-size="14.00">2&#45;pin</text>
<polygon fill="none" stroke="black" points="0.5,-667 0.5,-690 73.5,-690 73.5,-667 0.5,-667"/>
<text text-anchor="start" x="21" y="-674.8" font-family="arial" font-size="14.00">GND</text>
<polygon fill="none" stroke="black" points="73.5,-667 73.5,-690 121.5,-690 121.5,-667 73.5,-667"/>
<text text-anchor="start" x="93.5" y="-674.8" font-family="arial" font-size="14.00">1</text>
<polygon fill="none" stroke="black" points="0.5,-644 0.5,-667 73.5,-667 73.5,-644 0.5,-644"/>
<text text-anchor="start" x="22" y="-651.8" font-family="arial" font-size="14.00">VCC</text>
<polygon fill="none" stroke="black" points="73.5,-644 73.5,-667 121.5,-667 121.5,-644 73.5,-644"/>
<text text-anchor="start" x="93.5" y="-651.8" font-family="arial" font-size="14.00">2</text>
</g>
<!-- W1 -->
<g id="node7" class="node">
<title>W1</title>
<polygon fill="white" stroke="black" stroke-dasharray="5,2" points="392,-766 265,-766 265,-632 392,-632 392,-766"/>
<polygon fill="none" stroke="black" points="265.5,-743 265.5,-766 392.5,-766 392.5,-743 265.5,-743"/>
<text text-anchor="start" x="318.5" y="-750.8" font-family="arial" font-size="14.00">W1</text>
<polygon fill="none" stroke="black" points="265.5,-720 265.5,-743 288.5,-743 288.5,-720 265.5,-720"/>
<text text-anchor="start" x="269.5" y="-727.8" font-family="arial" font-size="14.00">2x</text>
<polygon fill="none" stroke="black" points="288.5,-720 288.5,-743 348.5,-743 348.5,-720 288.5,-720"/>
<text text-anchor="start" x="292.5" y="-727.8" font-family="arial" font-size="14.00">16 AWG</text>
<polygon fill="none" stroke="black" points="348.5,-720 348.5,-743 392.5,-743 392.5,-720 348.5,-720"/>
<text text-anchor="start" x="352.5" y="-727.8" font-family="arial" font-size="14.00">0.2 m</text>
<text text-anchor="start" x="286" y="-706.8" font-family="arial" font-size="14.00"> </text>
<text text-anchor="start" x="273.5" y="-687.8" font-family="arial" font-size="14.00">X1:1</text>
<text text-anchor="start" x="319.5" y="-687.8" font-family="arial" font-size="14.00">BK</text>
<text text-anchor="start" x="355.5" y="-687.8" font-family="arial" font-size="14.00">X2:1</text>
<polygon fill="#000000" stroke="transparent" points="265.5,-680 265.5,-682 392.5,-682 392.5,-680 265.5,-680"/>
<polygon fill="#000000" stroke="transparent" points="265.5,-678 265.5,-680 392.5,-680 392.5,-678 265.5,-678"/>
<polygon fill="#000000" stroke="transparent" points="265.5,-676 265.5,-678 392.5,-678 392.5,-676 265.5,-676"/>
<text text-anchor="start" x="273.5" y="-662.8" font-family="arial" font-size="14.00">X1:2</text>
<text text-anchor="start" x="318.5" y="-662.8" font-family="arial" font-size="14.00">RD</text>
<text text-anchor="start" x="355.5" y="-662.8" font-family="arial" font-size="14.00">X2:2</text>
<polygon fill="#000000" stroke="transparent" points="265.5,-655 265.5,-657 392.5,-657 392.5,-655 265.5,-655"/>
<polygon fill="#ff0000" stroke="transparent" points="265.5,-653 265.5,-655 392.5,-655 392.5,-653 265.5,-653"/>
<polygon fill="#000000" stroke="transparent" points="265.5,-651 265.5,-653 392.5,-653 392.5,-651 265.5,-651"/>
<text text-anchor="start" x="286" y="-637.8" font-family="arial" font-size="14.00"> </text>
</g>
<!-- X1&#45;&#45;W1 -->
<g id="edge1" class="edge">
<title>X1:e&#45;&#45;W1:w</title>
<path fill="none" stroke="#000000" stroke-width="2" d="M121,-676C185.13,-676 201.12,-677 265,-677"/>
<path fill="none" stroke="#000000" stroke-width="2" d="M121,-678C185,-678 201,-679 265,-679"/>
<path fill="none" stroke="#000000" stroke-width="2" d="M121,-680C184.88,-680 200.87,-681 265,-681"/>
</g>
<!-- X1&#45;&#45;W1 -->
<g id="edge3" class="edge">
<title>X1:e&#45;&#45;W1:w</title>
<path fill="none" stroke="#000000" stroke-width="2" d="M121,-653C184.88,-653 200.87,-652 265,-652"/>
<path fill="none" stroke="#ff0000" stroke-width="2" d="M121,-655C185,-655 201,-654 265,-654"/>
<path fill="none" stroke="#000000" stroke-width="2" d="M121,-657C185.13,-657 201.12,-656 265,-656"/>
</g>
<!-- X2 -->
<g id="node2" class="node">
<title>X2</title>
<polygon fill="white" stroke="transparent" points="657,-657 536,-657 536,-565 657,-565 657,-657"/>
<polygon fill="none" stroke="black" points="536.5,-634 536.5,-657 657.5,-657 657.5,-634 536.5,-634"/>
<text text-anchor="start" x="588" y="-641.8" font-family="arial" font-size="14.00">X2</text>
<polygon fill="none" stroke="black" points="536.5,-611 536.5,-634 578.5,-634 578.5,-611 536.5,-611"/>
<text text-anchor="start" x="540.5" y="-618.8" font-family="arial" font-size="14.00">XT30</text>
<polygon fill="none" stroke="black" points="578.5,-611 578.5,-634 617.5,-634 617.5,-611 578.5,-611"/>
<text text-anchor="start" x="582.5" y="-618.8" font-family="arial" font-size="14.00">male</text>
<polygon fill="none" stroke="black" points="617.5,-611 617.5,-634 657.5,-634 657.5,-611 617.5,-611"/>
<text text-anchor="start" x="621.5" y="-618.8" font-family="arial" font-size="14.00">2&#45;pin</text>
<polygon fill="none" stroke="black" points="536.5,-588 536.5,-611 585.5,-611 585.5,-588 536.5,-588"/>
<text text-anchor="start" x="557" y="-595.8" font-family="arial" font-size="14.00">1</text>
<polygon fill="none" stroke="black" points="585.5,-588 585.5,-611 657.5,-611 657.5,-588 585.5,-588"/>
<text text-anchor="start" x="605.5" y="-595.8" font-family="arial" font-size="14.00">GND</text>
<polygon fill="none" stroke="black" points="536.5,-565 536.5,-588 585.5,-588 585.5,-565 536.5,-565"/>
<text text-anchor="start" x="557" y="-572.8" font-family="arial" font-size="14.00">2</text>
<polygon fill="none" stroke="black" points="585.5,-565 585.5,-588 657.5,-588 657.5,-565 585.5,-565"/>
<text text-anchor="start" x="606.5" y="-572.8" font-family="arial" font-size="14.00">VCC</text>
</g>
<!-- X3 -->
<g id="node3" class="node">
<title>X3</title>
<polygon fill="white" stroke="transparent" points="121,-499 0,-499 0,-407 121,-407 121,-499"/>
<polygon fill="none" stroke="black" points="0.5,-476 0.5,-499 121.5,-499 121.5,-476 0.5,-476"/>
<text text-anchor="start" x="52" y="-483.8" font-family="arial" font-size="14.00">X3</text>
<polygon fill="none" stroke="black" points="0.5,-453 0.5,-476 42.5,-476 42.5,-453 0.5,-453"/>
<text text-anchor="start" x="4.5" y="-460.8" font-family="arial" font-size="14.00">XT30</text>
<polygon fill="none" stroke="black" points="42.5,-453 42.5,-476 81.5,-476 81.5,-453 42.5,-453"/>
<text text-anchor="start" x="46.5" y="-460.8" font-family="arial" font-size="14.00">male</text>
<polygon fill="none" stroke="black" points="81.5,-453 81.5,-476 121.5,-476 121.5,-453 81.5,-453"/>
<text text-anchor="start" x="85.5" y="-460.8" font-family="arial" font-size="14.00">2&#45;pin</text>
<polygon fill="none" stroke="black" points="0.5,-430 0.5,-453 73.5,-453 73.5,-430 0.5,-430"/>
<text text-anchor="start" x="21" y="-437.8" font-family="arial" font-size="14.00">GND</text>
<polygon fill="none" stroke="black" points="73.5,-430 73.5,-453 121.5,-453 121.5,-430 73.5,-430"/>
<text text-anchor="start" x="93.5" y="-437.8" font-family="arial" font-size="14.00">1</text>
<polygon fill="none" stroke="black" points="0.5,-407 0.5,-430 73.5,-430 73.5,-407 0.5,-407"/>
<text text-anchor="start" x="22" y="-414.8" font-family="arial" font-size="14.00">VCC</text>
<polygon fill="none" stroke="black" points="73.5,-407 73.5,-430 121.5,-430 121.5,-407 73.5,-407"/>
<text text-anchor="start" x="93.5" y="-414.8" font-family="arial" font-size="14.00">2</text>
</g>
<!-- W2 -->
<g id="node8" class="node">
<title>W2</title>
<polygon fill="white" stroke="black" stroke-dasharray="5,2" points="392,-608 265,-608 265,-474 392,-474 392,-608"/>
<polygon fill="none" stroke="black" points="265.5,-585 265.5,-608 392.5,-608 392.5,-585 265.5,-585"/>
<text text-anchor="start" x="318.5" y="-592.8" font-family="arial" font-size="14.00">W2</text>
<polygon fill="none" stroke="black" points="265.5,-562 265.5,-585 288.5,-585 288.5,-562 265.5,-562"/>
<text text-anchor="start" x="269.5" y="-569.8" font-family="arial" font-size="14.00">2x</text>
<polygon fill="none" stroke="black" points="288.5,-562 288.5,-585 348.5,-585 348.5,-562 288.5,-562"/>
<text text-anchor="start" x="292.5" y="-569.8" font-family="arial" font-size="14.00">16 AWG</text>
<polygon fill="none" stroke="black" points="348.5,-562 348.5,-585 392.5,-585 392.5,-562 348.5,-562"/>
<text text-anchor="start" x="352.5" y="-569.8" font-family="arial" font-size="14.00">0.2 m</text>
<text text-anchor="start" x="286" y="-548.8" font-family="arial" font-size="14.00"> </text>
<text text-anchor="start" x="273.5" y="-529.8" font-family="arial" font-size="14.00">X3:1</text>
<text text-anchor="start" x="319.5" y="-529.8" font-family="arial" font-size="14.00">BK</text>
<text text-anchor="start" x="355.5" y="-529.8" font-family="arial" font-size="14.00">X2:1</text>
<polygon fill="#000000" stroke="transparent" points="265.5,-522 265.5,-524 392.5,-524 392.5,-522 265.5,-522"/>
<polygon fill="#000000" stroke="transparent" points="265.5,-520 265.5,-522 392.5,-522 392.5,-520 265.5,-520"/>
<polygon fill="#000000" stroke="transparent" points="265.5,-518 265.5,-520 392.5,-520 392.5,-518 265.5,-518"/>
<text text-anchor="start" x="273.5" y="-504.8" font-family="arial" font-size="14.00">X3:2</text>
<text text-anchor="start" x="318.5" y="-504.8" font-family="arial" font-size="14.00">RD</text>
<text text-anchor="start" x="355.5" y="-504.8" font-family="arial" font-size="14.00">X2:2</text>
<polygon fill="#000000" stroke="transparent" points="265.5,-497 265.5,-499 392.5,-499 392.5,-497 265.5,-497"/>
<polygon fill="#ff0000" stroke="transparent" points="265.5,-495 265.5,-497 392.5,-497 392.5,-495 265.5,-495"/>
<polygon fill="#000000" stroke="transparent" points="265.5,-493 265.5,-495 392.5,-495 392.5,-493 265.5,-493"/>
<text text-anchor="start" x="286" y="-479.8" font-family="arial" font-size="14.00"> </text>
</g>
<!-- X3&#45;&#45;W2 -->
<g id="edge5" class="edge">
<title>X3:e&#45;&#45;W2:w</title>
<path fill="none" stroke="#000000" stroke-width="2" d="M121,-439C196.21,-441.06 193.79,-521.06 265,-519"/>
<path fill="none" stroke="#000000" stroke-width="2" d="M121,-441C194.21,-441 191.79,-521 265,-521"/>
<path fill="none" stroke="#000000" stroke-width="2" d="M121,-443C192.21,-440.94 189.79,-520.94 265,-523"/>
</g>
<!-- X3&#45;&#45;W2 -->
<g id="edge7" class="edge">
<title>X3:e&#45;&#45;W2:w</title>
<path fill="none" stroke="#000000" stroke-width="2" d="M121,-416C195.79,-418.04 194.21,-496.04 265,-494"/>
<path fill="none" stroke="#ff0000" stroke-width="2" d="M121,-418C193.79,-418 192.21,-496 265,-496"/>
<path fill="none" stroke="#000000" stroke-width="2" d="M121,-420C191.79,-417.96 190.21,-495.96 265,-498"/>
</g>
<!-- W3 -->
<g id="node9" class="node">
<title>W3</title>
<polygon fill="white" stroke="black" stroke-dasharray="5,2" points="392,-450 265,-450 265,-316 392,-316 392,-450"/>
<polygon fill="none" stroke="black" points="265.5,-427 265.5,-450 392.5,-450 392.5,-427 265.5,-427"/>
<text text-anchor="start" x="318.5" y="-434.8" font-family="arial" font-size="14.00">W3</text>
<polygon fill="none" stroke="black" points="265.5,-404 265.5,-427 288.5,-427 288.5,-404 265.5,-404"/>
<text text-anchor="start" x="269.5" y="-411.8" font-family="arial" font-size="14.00">2x</text>
<polygon fill="none" stroke="black" points="288.5,-404 288.5,-427 348.5,-427 348.5,-404 288.5,-404"/>
<text text-anchor="start" x="292.5" y="-411.8" font-family="arial" font-size="14.00">16 AWG</text>
<polygon fill="none" stroke="black" points="348.5,-404 348.5,-427 392.5,-427 392.5,-404 348.5,-404"/>
<text text-anchor="start" x="352.5" y="-411.8" font-family="arial" font-size="14.00">0.2 m</text>
<text text-anchor="start" x="286" y="-390.8" font-family="arial" font-size="14.00"> </text>
<text text-anchor="start" x="273.5" y="-371.8" font-family="arial" font-size="14.00">X3:1</text>
<text text-anchor="start" x="319.5" y="-371.8" font-family="arial" font-size="14.00">BK</text>
<text text-anchor="start" x="355.5" y="-371.8" font-family="arial" font-size="14.00">X4:1</text>
<polygon fill="#000000" stroke="transparent" points="265.5,-364 265.5,-366 392.5,-366 392.5,-364 265.5,-364"/>
<polygon fill="#000000" stroke="transparent" points="265.5,-362 265.5,-364 392.5,-364 392.5,-362 265.5,-362"/>
<polygon fill="#000000" stroke="transparent" points="265.5,-360 265.5,-362 392.5,-362 392.5,-360 265.5,-360"/>
<text text-anchor="start" x="273.5" y="-346.8" font-family="arial" font-size="14.00">X3:2</text>
<text text-anchor="start" x="318.5" y="-346.8" font-family="arial" font-size="14.00">RD</text>
<text text-anchor="start" x="355.5" y="-346.8" font-family="arial" font-size="14.00">X4:2</text>
<polygon fill="#000000" stroke="transparent" points="265.5,-339 265.5,-341 392.5,-341 392.5,-339 265.5,-339"/>
<polygon fill="#ff0000" stroke="transparent" points="265.5,-337 265.5,-339 392.5,-339 392.5,-337 265.5,-337"/>
<polygon fill="#000000" stroke="transparent" points="265.5,-335 265.5,-337 392.5,-337 392.5,-335 265.5,-335"/>
<text text-anchor="start" x="286" y="-321.8" font-family="arial" font-size="14.00"> </text>
</g>
<!-- X3&#45;&#45;W3 -->
<g id="edge9" class="edge">
<title>X3:e&#45;&#45;W3:w</title>
<path fill="none" stroke="#000000" stroke-width="2" d="M121,-439C191.79,-441.04 190.21,-363.04 265,-361"/>
<path fill="none" stroke="#000000" stroke-width="2" d="M121,-441C193.79,-441 192.21,-363 265,-363"/>
<path fill="none" stroke="#000000" stroke-width="2" d="M121,-443C195.79,-440.96 194.21,-362.96 265,-365"/>
</g>
<!-- X3&#45;&#45;W3 -->
<g id="edge11" class="edge">
<title>X3:e&#45;&#45;W3:w</title>
<path fill="none" stroke="#000000" stroke-width="2" d="M121,-416C192.21,-418.06 189.79,-338.06 265,-336"/>
<path fill="none" stroke="#ff0000" stroke-width="2" d="M121,-418C194.21,-418 191.79,-338 265,-338"/>
<path fill="none" stroke="#000000" stroke-width="2" d="M121,-420C196.21,-417.94 193.79,-337.94 265,-340"/>
</g>
<!-- X4 -->
<g id="node4" class="node">
<title>X4</title>
<polygon fill="white" stroke="transparent" points="657,-341 536,-341 536,-249 657,-249 657,-341"/>
<polygon fill="none" stroke="black" points="536.5,-318 536.5,-341 657.5,-341 657.5,-318 536.5,-318"/>
<text text-anchor="start" x="588" y="-325.8" font-family="arial" font-size="14.00">X4</text>
<polygon fill="none" stroke="black" points="536.5,-295 536.5,-318 578.5,-318 578.5,-295 536.5,-295"/>
<text text-anchor="start" x="540.5" y="-302.8" font-family="arial" font-size="14.00">XT30</text>
<polygon fill="none" stroke="black" points="578.5,-295 578.5,-318 617.5,-318 617.5,-295 578.5,-295"/>
<text text-anchor="start" x="582.5" y="-302.8" font-family="arial" font-size="14.00">male</text>
<polygon fill="none" stroke="black" points="617.5,-295 617.5,-318 657.5,-318 657.5,-295 617.5,-295"/>
<text text-anchor="start" x="621.5" y="-302.8" font-family="arial" font-size="14.00">2&#45;pin</text>
<polygon fill="none" stroke="black" points="536.5,-272 536.5,-295 585.5,-295 585.5,-272 536.5,-272"/>
<text text-anchor="start" x="557" y="-279.8" font-family="arial" font-size="14.00">1</text>
<polygon fill="none" stroke="black" points="585.5,-272 585.5,-295 657.5,-295 657.5,-272 585.5,-272"/>
<text text-anchor="start" x="605.5" y="-279.8" font-family="arial" font-size="14.00">GND</text>
<polygon fill="none" stroke="black" points="536.5,-249 536.5,-272 585.5,-272 585.5,-249 536.5,-249"/>
<text text-anchor="start" x="557" y="-256.8" font-family="arial" font-size="14.00">2</text>
<polygon fill="none" stroke="black" points="585.5,-249 585.5,-272 657.5,-272 657.5,-249 585.5,-249"/>
<text text-anchor="start" x="606.5" y="-256.8" font-family="arial" font-size="14.00">VCC</text>
</g>
<!-- X5 -->
<g id="node5" class="node">
<title>X5</title>
<polygon fill="white" stroke="transparent" points="121,-183 0,-183 0,-91 121,-91 121,-183"/>
<polygon fill="none" stroke="black" points="0.5,-160 0.5,-183 121.5,-183 121.5,-160 0.5,-160"/>
<text text-anchor="start" x="52" y="-167.8" font-family="arial" font-size="14.00">X5</text>
<polygon fill="none" stroke="black" points="0.5,-137 0.5,-160 42.5,-160 42.5,-137 0.5,-137"/>
<text text-anchor="start" x="4.5" y="-144.8" font-family="arial" font-size="14.00">XT30</text>
<polygon fill="none" stroke="black" points="42.5,-137 42.5,-160 81.5,-160 81.5,-137 42.5,-137"/>
<text text-anchor="start" x="46.5" y="-144.8" font-family="arial" font-size="14.00">male</text>
<polygon fill="none" stroke="black" points="81.5,-137 81.5,-160 121.5,-160 121.5,-137 81.5,-137"/>
<text text-anchor="start" x="85.5" y="-144.8" font-family="arial" font-size="14.00">2&#45;pin</text>
<polygon fill="none" stroke="black" points="0.5,-114 0.5,-137 73.5,-137 73.5,-114 0.5,-114"/>
<text text-anchor="start" x="21" y="-121.8" font-family="arial" font-size="14.00">GND</text>
<polygon fill="none" stroke="black" points="73.5,-114 73.5,-137 121.5,-137 121.5,-114 73.5,-114"/>
<text text-anchor="start" x="93.5" y="-121.8" font-family="arial" font-size="14.00">1</text>
<polygon fill="none" stroke="black" points="0.5,-91 0.5,-114 73.5,-114 73.5,-91 0.5,-91"/>
<text text-anchor="start" x="22" y="-98.8" font-family="arial" font-size="14.00">VCC</text>
<polygon fill="none" stroke="black" points="73.5,-91 73.5,-114 121.5,-114 121.5,-91 73.5,-91"/>
<text text-anchor="start" x="93.5" y="-98.8" font-family="arial" font-size="14.00">2</text>
</g>
<!-- W4 -->
<g id="node10" class="node">
<title>W4</title>
<polygon fill="white" stroke="black" stroke-dasharray="5,2" points="392,-292 265,-292 265,-158 392,-158 392,-292"/>
<polygon fill="none" stroke="black" points="265.5,-269 265.5,-292 392.5,-292 392.5,-269 265.5,-269"/>
<text text-anchor="start" x="318.5" y="-276.8" font-family="arial" font-size="14.00">W4</text>
<polygon fill="none" stroke="black" points="265.5,-246 265.5,-269 288.5,-269 288.5,-246 265.5,-246"/>
<text text-anchor="start" x="269.5" y="-253.8" font-family="arial" font-size="14.00">2x</text>
<polygon fill="none" stroke="black" points="288.5,-246 288.5,-269 348.5,-269 348.5,-246 288.5,-246"/>
<text text-anchor="start" x="292.5" y="-253.8" font-family="arial" font-size="14.00">16 AWG</text>
<polygon fill="none" stroke="black" points="348.5,-246 348.5,-269 392.5,-269 392.5,-246 348.5,-246"/>
<text text-anchor="start" x="352.5" y="-253.8" font-family="arial" font-size="14.00">0.2 m</text>
<text text-anchor="start" x="286" y="-232.8" font-family="arial" font-size="14.00"> </text>
<text text-anchor="start" x="273.5" y="-213.8" font-family="arial" font-size="14.00">X5:1</text>
<text text-anchor="start" x="319.5" y="-213.8" font-family="arial" font-size="14.00">BK</text>
<text text-anchor="start" x="355.5" y="-213.8" font-family="arial" font-size="14.00">X4:1</text>
<polygon fill="#000000" stroke="transparent" points="265.5,-206 265.5,-208 392.5,-208 392.5,-206 265.5,-206"/>
<polygon fill="#000000" stroke="transparent" points="265.5,-204 265.5,-206 392.5,-206 392.5,-204 265.5,-204"/>
<polygon fill="#000000" stroke="transparent" points="265.5,-202 265.5,-204 392.5,-204 392.5,-202 265.5,-202"/>
<text text-anchor="start" x="273.5" y="-188.8" font-family="arial" font-size="14.00">X5:2</text>
<text text-anchor="start" x="318.5" y="-188.8" font-family="arial" font-size="14.00">RD</text>
<text text-anchor="start" x="355.5" y="-188.8" font-family="arial" font-size="14.00">X4:2</text>
<polygon fill="#000000" stroke="transparent" points="265.5,-181 265.5,-183 392.5,-183 392.5,-181 265.5,-181"/>
<polygon fill="#ff0000" stroke="transparent" points="265.5,-179 265.5,-181 392.5,-181 392.5,-179 265.5,-179"/>
<polygon fill="#000000" stroke="transparent" points="265.5,-177 265.5,-179 392.5,-179 392.5,-177 265.5,-177"/>
<text text-anchor="start" x="286" y="-163.8" font-family="arial" font-size="14.00"> </text>
</g>
<!-- X5&#45;&#45;W4 -->
<g id="edge13" class="edge">
<title>X5:e&#45;&#45;W4:w</title>
<path fill="none" stroke="#000000" stroke-width="2" d="M121,-123C196.21,-125.06 193.79,-205.06 265,-203"/>
<path fill="none" stroke="#000000" stroke-width="2" d="M121,-125C194.21,-125 191.79,-205 265,-205"/>
<path fill="none" stroke="#000000" stroke-width="2" d="M121,-127C192.21,-124.94 189.79,-204.94 265,-207"/>
</g>
<!-- X5&#45;&#45;W4 -->
<g id="edge15" class="edge">
<title>X5:e&#45;&#45;W4:w</title>
<path fill="none" stroke="#000000" stroke-width="2" d="M121,-100C195.79,-102.04 194.21,-180.04 265,-178"/>
<path fill="none" stroke="#ff0000" stroke-width="2" d="M121,-102C193.79,-102 192.21,-180 265,-180"/>
<path fill="none" stroke="#000000" stroke-width="2" d="M121,-104C191.79,-101.96 190.21,-179.96 265,-182"/>
</g>
<!-- W5 -->
<g id="node11" class="node">
<title>W5</title>
<polygon fill="white" stroke="black" stroke-dasharray="5,2" points="392,-134 265,-134 265,0 392,0 392,-134"/>
<polygon fill="none" stroke="black" points="265.5,-111 265.5,-134 392.5,-134 392.5,-111 265.5,-111"/>
<text text-anchor="start" x="318.5" y="-118.8" font-family="arial" font-size="14.00">W5</text>
<polygon fill="none" stroke="black" points="265.5,-88 265.5,-111 288.5,-111 288.5,-88 265.5,-88"/>
<text text-anchor="start" x="269.5" y="-95.8" font-family="arial" font-size="14.00">2x</text>
<polygon fill="none" stroke="black" points="288.5,-88 288.5,-111 348.5,-111 348.5,-88 288.5,-88"/>
<text text-anchor="start" x="292.5" y="-95.8" font-family="arial" font-size="14.00">16 AWG</text>
<polygon fill="none" stroke="black" points="348.5,-88 348.5,-111 392.5,-111 392.5,-88 348.5,-88"/>
<text text-anchor="start" x="352.5" y="-95.8" font-family="arial" font-size="14.00">0.2 m</text>
<text text-anchor="start" x="286" y="-74.8" font-family="arial" font-size="14.00"> </text>
<text text-anchor="start" x="273.5" y="-55.8" font-family="arial" font-size="14.00">X5:1</text>
<text text-anchor="start" x="319.5" y="-55.8" font-family="arial" font-size="14.00">BK</text>
<text text-anchor="start" x="355.5" y="-55.8" font-family="arial" font-size="14.00">X6:1</text>
<polygon fill="#000000" stroke="transparent" points="265.5,-48 265.5,-50 392.5,-50 392.5,-48 265.5,-48"/>
<polygon fill="#000000" stroke="transparent" points="265.5,-46 265.5,-48 392.5,-48 392.5,-46 265.5,-46"/>
<polygon fill="#000000" stroke="transparent" points="265.5,-44 265.5,-46 392.5,-46 392.5,-44 265.5,-44"/>
<text text-anchor="start" x="273.5" y="-30.8" font-family="arial" font-size="14.00">X5:2</text>
<text text-anchor="start" x="318.5" y="-30.8" font-family="arial" font-size="14.00">RD</text>
<text text-anchor="start" x="355.5" y="-30.8" font-family="arial" font-size="14.00">X6:2</text>
<polygon fill="#000000" stroke="transparent" points="265.5,-23 265.5,-25 392.5,-25 392.5,-23 265.5,-23"/>
<polygon fill="#ff0000" stroke="transparent" points="265.5,-21 265.5,-23 392.5,-23 392.5,-21 265.5,-21"/>
<polygon fill="#000000" stroke="transparent" points="265.5,-19 265.5,-21 392.5,-21 392.5,-19 265.5,-19"/>
<text text-anchor="start" x="286" y="-5.8" font-family="arial" font-size="14.00"> </text>
</g>
<!-- X5&#45;&#45;W5 -->
<g id="edge17" class="edge">
<title>X5:e&#45;&#45;W5:w</title>
<path fill="none" stroke="#000000" stroke-width="2" d="M121,-123C191.79,-125.04 190.21,-47.04 265,-45"/>
<path fill="none" stroke="#000000" stroke-width="2" d="M121,-125C193.79,-125 192.21,-47 265,-47"/>
<path fill="none" stroke="#000000" stroke-width="2" d="M121,-127C195.79,-124.96 194.21,-46.96 265,-49"/>
</g>
<!-- X5&#45;&#45;W5 -->
<g id="edge19" class="edge">
<title>X5:e&#45;&#45;W5:w</title>
<path fill="none" stroke="#000000" stroke-width="2" d="M121,-100C192.21,-102.06 189.79,-22.06 265,-20"/>
<path fill="none" stroke="#ff0000" stroke-width="2" d="M121,-102C194.21,-102 191.79,-22 265,-22"/>
<path fill="none" stroke="#000000" stroke-width="2" d="M121,-104C196.21,-101.94 193.79,-21.94 265,-24"/>
</g>
<!-- X6 -->
<g id="node6" class="node">
<title>X6</title>
<polygon fill="white" stroke="transparent" points="657,-104 536,-104 536,-12 657,-12 657,-104"/>
<polygon fill="none" stroke="black" points="536.5,-81 536.5,-104 657.5,-104 657.5,-81 536.5,-81"/>
<text text-anchor="start" x="588" y="-88.8" font-family="arial" font-size="14.00">X6</text>
<polygon fill="none" stroke="black" points="536.5,-58 536.5,-81 578.5,-81 578.5,-58 536.5,-58"/>
<text text-anchor="start" x="540.5" y="-65.8" font-family="arial" font-size="14.00">XT30</text>
<polygon fill="none" stroke="black" points="578.5,-58 578.5,-81 617.5,-81 617.5,-58 578.5,-58"/>
<text text-anchor="start" x="582.5" y="-65.8" font-family="arial" font-size="14.00">male</text>
<polygon fill="none" stroke="black" points="617.5,-58 617.5,-81 657.5,-81 657.5,-58 617.5,-58"/>
<text text-anchor="start" x="621.5" y="-65.8" font-family="arial" font-size="14.00">2&#45;pin</text>
<polygon fill="none" stroke="black" points="536.5,-35 536.5,-58 585.5,-58 585.5,-35 536.5,-35"/>
<text text-anchor="start" x="557" y="-42.8" font-family="arial" font-size="14.00">1</text>
<polygon fill="none" stroke="black" points="585.5,-35 585.5,-58 657.5,-58 657.5,-35 585.5,-35"/>
<text text-anchor="start" x="605.5" y="-42.8" font-family="arial" font-size="14.00">GND</text>
<polygon fill="none" stroke="black" points="536.5,-12 536.5,-35 585.5,-35 585.5,-12 536.5,-12"/>
<text text-anchor="start" x="557" y="-19.8" font-family="arial" font-size="14.00">2</text>
<polygon fill="none" stroke="black" points="585.5,-12 585.5,-35 657.5,-35 657.5,-12 585.5,-12"/>
<text text-anchor="start" x="606.5" y="-19.8" font-family="arial" font-size="14.00">VCC</text>
</g>
<!-- W1&#45;&#45;X2 -->
<g id="edge2" class="edge">
<title>W1:e&#45;&#45;X2:w</title>
<path fill="none" stroke="#000000" stroke-width="2" d="M392,-677C463.21,-679.06 460.79,-599.06 536,-597"/>
<path fill="none" stroke="#000000" stroke-width="2" d="M392,-679C465.21,-679 462.79,-599 536,-599"/>
<path fill="none" stroke="#000000" stroke-width="2" d="M392,-681C467.21,-678.94 464.79,-598.94 536,-601"/>
</g>
<!-- W1&#45;&#45;X2 -->
<g id="edge4" class="edge">
<title>W1:e&#45;&#45;X2:w</title>
<path fill="none" stroke="#000000" stroke-width="2" d="M392,-652C462.79,-654.04 461.21,-576.04 536,-574"/>
<path fill="none" stroke="#ff0000" stroke-width="2" d="M392,-654C464.79,-654 463.21,-576 536,-576"/>
<path fill="none" stroke="#000000" stroke-width="2" d="M392,-656C466.79,-653.96 465.21,-575.96 536,-578"/>
</g>
<!-- W2&#45;&#45;X2 -->
<g id="edge6" class="edge">
<title>W2:e&#45;&#45;X2:w</title>
<path fill="none" stroke="#000000" stroke-width="2" d="M392,-519C466.79,-521.04 465.21,-599.04 536,-597"/>
<path fill="none" stroke="#000000" stroke-width="2" d="M392,-521C464.79,-521 463.21,-599 536,-599"/>
<path fill="none" stroke="#000000" stroke-width="2" d="M392,-523C462.79,-520.96 461.21,-598.96 536,-601"/>
</g>
<!-- W2&#45;&#45;X2 -->
<g id="edge8" class="edge">
<title>W2:e&#45;&#45;X2:w</title>
<path fill="none" stroke="#000000" stroke-width="2" d="M392,-494C467.21,-496.06 464.79,-576.06 536,-574"/>
<path fill="none" stroke="#ff0000" stroke-width="2" d="M392,-496C465.21,-496 462.79,-576 536,-576"/>
<path fill="none" stroke="#000000" stroke-width="2" d="M392,-498C463.21,-495.94 460.79,-575.94 536,-578"/>
</g>
<!-- W3&#45;&#45;X4 -->
<g id="edge10" class="edge">
<title>W3:e&#45;&#45;X4:w</title>
<path fill="none" stroke="#000000" stroke-width="2" d="M392,-361C463.21,-363.06 460.79,-283.06 536,-281"/>
<path fill="none" stroke="#000000" stroke-width="2" d="M392,-363C465.21,-363 462.79,-283 536,-283"/>
<path fill="none" stroke="#000000" stroke-width="2" d="M392,-365C467.21,-362.94 464.79,-282.94 536,-285"/>
</g>
<!-- W3&#45;&#45;X4 -->
<g id="edge12" class="edge">
<title>W3:e&#45;&#45;X4:w</title>
<path fill="none" stroke="#000000" stroke-width="2" d="M392,-336C462.79,-338.04 461.21,-260.04 536,-258"/>
<path fill="none" stroke="#ff0000" stroke-width="2" d="M392,-338C464.79,-338 463.21,-260 536,-260"/>
<path fill="none" stroke="#000000" stroke-width="2" d="M392,-340C466.79,-337.96 465.21,-259.96 536,-262"/>
</g>
<!-- W4&#45;&#45;X4 -->
<g id="edge14" class="edge">
<title>W4:e&#45;&#45;X4:w</title>
<path fill="none" stroke="#000000" stroke-width="2" d="M392,-203C466.79,-205.04 465.21,-283.04 536,-281"/>
<path fill="none" stroke="#000000" stroke-width="2" d="M392,-205C464.79,-205 463.21,-283 536,-283"/>
<path fill="none" stroke="#000000" stroke-width="2" d="M392,-207C462.79,-204.96 461.21,-282.96 536,-285"/>
</g>
<!-- W4&#45;&#45;X4 -->
<g id="edge16" class="edge">
<title>W4:e&#45;&#45;X4:w</title>
<path fill="none" stroke="#000000" stroke-width="2" d="M392,-178C467.21,-180.06 464.79,-260.06 536,-258"/>
<path fill="none" stroke="#ff0000" stroke-width="2" d="M392,-180C465.21,-180 462.79,-260 536,-260"/>
<path fill="none" stroke="#000000" stroke-width="2" d="M392,-182C463.21,-179.94 460.79,-259.94 536,-262"/>
</g>
<!-- W5&#45;&#45;X6 -->
<g id="edge18" class="edge">
<title>W5:e&#45;&#45;X6:w</title>
<path fill="none" stroke="#000000" stroke-width="2" d="M392,-45C455.88,-45 471.87,-44 536,-44"/>
<path fill="none" stroke="#000000" stroke-width="2" d="M392,-47C456,-47 472,-46 536,-46"/>
<path fill="none" stroke="#000000" stroke-width="2" d="M392,-49C456.13,-49 472.12,-48 536,-48"/>
</g>
<!-- W5&#45;&#45;X6 -->
<g id="edge20" class="edge">
<title>W5:e&#45;&#45;X6:w</title>
<path fill="none" stroke="#000000" stroke-width="2" d="M392,-20C456.13,-20 472.12,-21 536,-21"/>
<path fill="none" stroke="#ff0000" stroke-width="2" d="M392,-22C456,-22 472,-23 536,-23"/>
<path fill="none" stroke="#000000" stroke-width="2" d="M392,-24C455.88,-24 471.87,-25 536,-25"/>
</g>
</g>
</svg>
